<svg xmlns="http://www.w3.org/2000/svg" viewBox="0 0 1600 900" role="img" aria-label="Airport runway illustration">
  <defs>
    <linearGradient id="sky" x1="0" x2="0" y1="0" y2="1">
      <stop offset="0%" stop-color="#d8ecfb"/>
      <stop offset="58%" stop-color="#f5efe5"/>
      <stop offset="100%" stop-color="#dcc4a8"/>
    </linearGradient>
    <linearGradient id="runway" x1="0" x2="0" y1="0" y2="1">
      <stop offset="0%" stop-color="#51606d"/>
      <stop offset="100%" stop-color="#222c35"/>
    </linearGradient>
  </defs>
  <rect width="1600" height="900" fill="url(#sky)"/>
  <circle cx="1260" cy="160" r="76" fill="#fff6d6" opacity="0.9"/>
  <path d="M0 560c140 46 247 65 397 43 171-26 278-102 456-92 135 8 209 62 353 65 142 2 251-27 394-79v403H0z" fill="#dcbda0" opacity="0.55"/>
  <path d="M0 618c175-36 303-55 472-27 117 19 208 71 343 67 118-4 198-51 313-56 183-9 281 41 472 96v201H0z" fill="#cba27b" opacity="0.38"/>
  <path d="M580 368h315l130 86H450z" fill="#f7fafc" opacity="0.84"/>
  <rect x="708" y="278" width="50" height="108" rx="4" fill="#738290"/>
  <rect x="651" y="316" width="164" height="16" fill="#aeb9c2"/>
  <rect x="603" y="336" width="260" height="28" fill="#edf3f8"/>
  <rect x="628" y="382" width="212" height="12" fill="#aab4be"/>
  <path d="M1040 520 1600 900H0l554-380z" fill="url(#runway)"/>
  <path d="M788 520h24v290h-24z" fill="#f9fafb" opacity="0.92"/>
  <path d="M788 566h24v54h-24zm0 92h24v54h-24zm0 92h24v54h-24z" fill="#ffdd8b"/>
  <path d="M470 640c132-37 259-57 382-57 106 0 217 14 333 40 78 18 152 40 224 71" fill="none" stroke="#f7f4ee" stroke-width="7" stroke-dasharray="20 22" opacity="0.54"/>
  <g fill="#ffffff" opacity="0.46">
    <circle cx="210" cy="126" r="26"/>
    <circle cx="236" cy="110" r="34"/>
    <circle cx="276" cy="126" r="24"/>
    <circle cx="1128" cy="104" r="19"/>
    <circle cx="1152" cy="93" r="28"/>
    <circle cx="1185" cy="103" r="21"/>
  </g>
</svg>
